<?xml version="1.0" standalone="no"?>
<!DOCTYPE svg PUBLIC "-//W3C//DTD SVG 20010904//EN"
 "http://www.w3.org/TR/2001/REC-SVG-20010904/DTD/svg10.dtd">
<svg version="1.0" xmlns="http://www.w3.org/2000/svg"
 width="1024.000000pt" height="1024.000000pt" viewBox="0 0 1024.000000 1024.000000"
 preserveAspectRatio="xMidYMid meet">
<metadata>
Created by potrace 1.16, written by Peter Selinger 2001-2019
</metadata>
<g transform="translate(0.000000,1024.000000) scale(0.100000,-0.100000)"
fill="#000000" stroke="none">
<path d="M0 5120 l0 -5120 5120 0 5120 0 0 5120 0 5120 -5120 0 -5120 0 0
-5120z m5130 4556 l0 -314 -56 -4 c-31 -1 -57 -1 -59 1 -2 2 -4 145 -5 317 l0
314 60 0 60 0 0 -314z m530 289 c1056 -123 2126 -657 2890 -1441 805 -825
1342 -1987 1407 -3041 l6 -103 -225 0 -225 0 -7 136 c-9 161 -22 143 111 160
158 21 153 19 153 57 0 29 -33 251 -45 303 l-5 21 -112 -23 c-145 -30 -166
-30 -173 -1 -11 47 -35 169 -35 177 0 9 16 15 137 50 l71 20 -20 78 c-11 42
-24 81 -28 85 -7 8 -165 -46 -187 -65 -18 -14 -18 -15 -53 84 -41 117 -43 112
52 148 46 17 91 34 100 38 15 6 -30 153 -57 190 -2 2 -44 -18 -95 -43 -108
-52 -107 -52 -115 -22 -4 12 -48 104 -98 205 -50 100 -88 184 -86 186 2 2 59
36 127 75 131 77 140 86 121 123 -12 24 -169 290 -175 297 -1 2 -60 -34 -129
-80 -70 -45 -130 -78 -133 -73 -4 5 -24 36 -45 68 -92 141 -287 393 -424 549
l-43 49 105 110 104 111 -19 27 c-24 34 -234 230 -246 230 -5 0 -14 -8 -21
-18 -16 -27 -312 -380 -323 -387 -9 -5 -268 202 -269 215 -1 3 47 66 105 140
256 328 245 276 84 401 -151 117 -131 117 -223 -4 -42 -56 -88 -115 -101 -131
l-23 -28 -132 82 c-135 85 -148 95 -107 84 25 -6 55 29 89 103 13 29 0 41
-104 101 l-58 32 -42 -71 c-40 -68 -41 -73 -23 -86 13 -10 14 -13 3 -13 -11 0
-218 101 -236 115 -2 1 15 43 37 95 23 51 39 94 38 95 -18 16 -229 108 -234
102 -2 -1 -22 -43 -45 -92 -22 -50 -42 -91 -44 -93 -1 -1 -54 18 -118 43 -63
25 -120 45 -126 45 -15 0 -14 12 14 120 28 110 36 99 -97 135 -125 33 -119 36
-148 -79 -14 -57 -29 -96 -36 -96 -14 0 -187 40 -192 45 -1 1 4 44 13 95 8 52
14 95 12 96 -2 2 -179 34 -188 34 -4 0 -12 -43 -19 -95 -13 -96 -13 -96 -39
-90 -23 5 -165 24 -183 25 -10 0 -10 410 0 410 4 0 63 -7 132 -15z m-1030
-198 l0 -203 -102 -11 c-122 -12 -105 -24 -124 81 -19 102 -16 100 -119 78
l-80 -17 0 -45 c0 -25 4 -68 8 -96 l8 -50 -83 -18 c-46 -10 -92 -20 -104 -22
-19 -5 -24 5 -50 95 -16 56 -33 101 -38 101 -18 0 -211 -52 -219 -59 -4 -4 4
-52 18 -106 14 -54 24 -99 23 -101 -5 -4 -229 -92 -246 -96 -9 -2 -29 32 -56
92 -26 59 -48 94 -56 92 -38 -9 -230 -95 -230 -104 0 -5 16 -46 35 -89 19 -44
35 -85 35 -92 0 -11 -187 -115 -193 -106 -1 2 -18 35 -37 72 -45 87 -35 85
-135 31 -98 -53 -96 -48 -50 -130 34 -61 37 -63 63 -53 15 6 23 6 17 1 -20
-18 -266 -175 -268 -171 -22 33 -183 242 -193 250 -14 11 -184 -112 -248 -180
l-29 -30 29 -38 c16 -21 75 -95 131 -166 97 -121 163 -210 163 -220 0 -4 -87
-81 -223 -196 -17 -14 -21 -13 -50 21 -18 20 -99 114 -180 208 l-149 170 -56
-49 c-32 -27 -92 -85 -135 -128 l-77 -78 76 -75 c41 -41 89 -92 105 -112 l30
-37 -113 -133 c-128 -150 -255 -318 -348 -458 -35 -52 -64 -97 -66 -98 -1 -2
-62 35 -135 83 -72 47 -135 83 -139 78 -28 -33 -190 -307 -190 -321 0 -6 59
-45 130 -87 72 -42 130 -81 130 -86 0 -5 -20 -49 -44 -97 -23 -48 -66 -139
-95 -202 l-52 -115 -87 42 c-48 24 -91 43 -97 43 -8 0 -58 -122 -73 -176 -2
-6 40 -30 92 -53 l94 -43 -28 -81 c-31 -93 -24 -91 -137 -48 l-81 30 -21 -78
c-12 -42 -21 -83 -21 -89 0 -13 158 -64 172 -56 4 3 8 12 8 21 0 9 2 14 5 11
5 -5 -11 -98 -36 -210 -13 -57 -9 -57 -167 -27 -62 12 -115 19 -118 16 -8 -8
-33 -176 -40 -272 l-7 -81 137 -18 137 -19 -6 -116 c-4 -64 -8 -126 -11 -138
l-4 -23 -224 0 -224 0 4 43 c21 229 38 371 55 472 359 2125 2126 3815 4254
4068 17 2 54 5 83 6 l52 1 0 -203z m880 -721 c1828 -214 3282 -1700 3521
-3601 17 -128 16 -607 0 -740 -172 -1416 -915 -2502 -2136 -3120 -1902 -964
-4183 -304 -5284 1528 l-23 37 176 0 176 0 0 -105 0 -105 54 -57 c29 -32 71
-79 92 -105 22 -26 42 -47 47 -47 4 -1 7 94 7 209 l0 210 50 0 49 0 3 -270 c3
-265 3 -270 26 -292 l23 -23 487 -3 487 -3 29 -54 c147 -282 586 -186 589 129
3 325 -406 442 -583 166 l-32 -50 -412 2 -411 3 -3 198 -2 197 906 0 906 0
-47 47 c-60 61 -114 171 -122 247 l-6 57 59 -30 c166 -84 353 -59 508 69 l54
45 -121 125 c-67 69 -166 171 -221 228 l-101 103 198 195 197 195 0 189 0 190
153 1 c83 1 155 1 160 0 4 0 7 62 7 139 l0 140 155 0 c148 0 155 1 155 20 0
37 33 105 107 219 l73 114 -43 44 -42 44 -113 -115 -112 -116 -90 0 -90 0 0
380 0 380 53 0 52 1 107 103 c59 57 105 105 103 107 -2 2 -199 3 -439 1 l-436
-2 0 -100 0 -100 179 0 178 0 6 -67 c4 -38 7 -276 7 -529 l0 -461 -31 -7 c-17
-3 -101 -6 -185 -6 l-154 0 0 -182 c0 -333 -53 -458 -228 -541 l-62 -29 -37
36 -37 36 -1238 0 -1238 0 0 763 c0 419 4 812 9 873 9 109 74 420 92 439 5 5
9 -346 9 -856 0 -942 -1 -918 56 -1001 32 -45 91 -89 149 -109 69 -24 2122
-20 2190 4 69 24 135 75 174 133 65 98 62 28 59 1360 l-3 1209 -27 51 c-53
100 -110 149 -209 178 -48 15 -161 16 -1020 16 l-965 -1 -85 -115 c-359 -488
-577 -1035 -666 -1664 -22 -161 -26 -812 -5 -955 17 -118 88 -485 107 -555 21
-80 21 -81 -51 -159 -80 -86 -81 -86 -111 15 -311 1056 -192 2177 327 3069
824 1416 2357 2212 3910 2031z m-2808 -1995 l-4 -59 -51 -7 c-29 -4 -89 -16
-135 -27 -46 -11 -85 -18 -86 -16 -1 1 -10 22 -21 46 -15 35 -22 41 -39 36
-19 -6 -136 -62 -144 -69 -2 -2 4 -17 12 -34 24 -46 21 -55 -44 -100 l-60 -42
-25 28 c-13 15 -25 31 -25 36 -1 20 -31 1 -84 -52 l-59 -59 21 -27 22 -27 -23
-29 c-12 -15 -25 -28 -29 -28 -10 -1 -10 156 -1 347 l6 142 386 0 386 0 -3
-59z m1325 35 l28 -24 2 -1151 c2 -1117 1 -1151 -17 -1161 -12 -7 -217 -9
-577 -8 l-558 3 -3 57 c-3 65 -12 58 105 78 35 6 82 17 104 25 56 20 56 20 79
-25 25 -48 22 -48 110 -9 76 34 77 36 44 101 -13 26 -13 27 46 67 l61 42 40
-33 40 -32 56 57 57 56 -20 23 c-35 39 -35 45 1 85 20 21 56 71 81 111 51 81
46 78 105 57 23 -9 46 -12 50 -8 8 9 60 135 56 138 -1 1 -21 12 -44 25 -49 27
-48 22 -28 98 8 31 17 69 20 85 5 25 9 27 55 27 l50 0 2 70 c0 39 1 76 2 83 1
7 -17 14 -44 17 l-45 5 -7 60 c-4 33 -9 76 -11 96 -5 35 -4 36 44 53 56 20 56
22 29 102 -26 75 -27 76 -81 60 l-45 -14 -37 87 -38 86 40 34 39 34 -39 53
c-50 66 -63 71 -105 39 l-34 -26 -25 28 c-31 35 -31 41 2 75 l27 28 -59 61
-60 60 -38 -41 c-21 -23 -42 -40 -45 -38 -89 41 -121 85 -97 132 21 41 22 40
-55 75 -88 39 -83 40 -111 -14 -16 -29 -29 -43 -39 -40 -99 28 -135 36 -185
43 l-60 7 -3 63 -3 62 555 0 555 0 28 -24z m-1115 -246 c759 -110 1083 -992
565 -1537 -647 -681 -1812 -125 -1653 787 83 474 588 822 1088 750z m-942
-1665 c0 -7 -9 -20 -20 -30 -24 -22 -19 -29 60 -91 l54 -44 28 27 c28 27 29
27 56 10 15 -10 42 -25 60 -35 35 -17 37 -29 17 -97 -6 -21 -9 -20 102 -64
l53 -21 20 40 c24 46 23 46 112 21 37 -11 97 -22 133 -26 l66 -7 -3 -57 -3
-56 -386 -3 -386 -2 -6 67 c-4 38 -7 149 -7 247 l0 179 25 -23 c14 -13 25 -29
25 -35z m-1336 -271 c6 -15 9 -244 4 -244 -2 0 -57 -7 -123 -15 -65 -8 -125
-15 -132 -15 -15 0 -12 -52 13 -239 17 -127 -2 -114 148 -100 150 15 131 31
160 -137 38 -218 46 -190 -61 -225 -104 -33 -100 -28 -73 -123 25 -87 14 -82
115 -47 48 17 91 28 95 26 7 -4 30 -83 30 -103 0 -8 -74 -43 -152 -71 l-28
-10 21 -52 c11 -29 29 -72 40 -95 l19 -43 87 40 c94 43 92 44 117 -21 10 -25
52 -117 94 -204 l76 -159 -24 -19 c-13 -11 -67 -45 -120 -76 -52 -30 -99 -59
-104 -63 -10 -8 145 -291 179 -327 1 -2 58 31 125 72 l123 75 129 -182 c137
-192 205 -279 327 -417 41 -47 83 -95 94 -106 19 -22 18 -22 -82 -135 -56 -62
-101 -116 -101 -120 0 -3 59 -60 130 -127 l131 -120 42 46 c24 26 105 118 181
205 76 87 142 157 146 155 16 -6 239 -203 239 -212 1 -10 -75 -110 -221 -293
-54 -67 -98 -124 -98 -128 0 -10 78 -75 172 -144 l95 -69 102 133 103 133 101
-60 c143 -85 136 -72 87 -162 -23 -42 -41 -78 -39 -80 11 -9 172 -96 173 -94
4 6 90 143 93 147 2 3 181 -75 191 -84 2 -2 -9 -31 -24 -66 -15 -35 -33 -83
-40 -105 l-12 -42 119 -47 c66 -27 121 -46 123 -44 2 2 21 45 42 94 21 50 39
92 40 94 7 9 264 -85 264 -97 0 -7 -9 -53 -20 -103 -12 -51 -18 -94 -15 -97 7
-8 218 -62 222 -58 2 2 16 47 30 100 28 103 28 104 93 87 19 -5 60 -15 91 -21
l56 -11 -13 -82 c-8 -45 -14 -87 -14 -94 0 -11 50 -25 142 -38 l46 -7 13 92
13 92 86 -6 c145 -12 130 13 130 -217 l0 -199 -38 0 c-209 0 -822 131 -1152
245 -827 288 -1588 813 -2142 1478 -697 836 -1064 1765 -1114 2815 l-6 142
225 0 c196 0 226 -2 231 -16z m9336 -26 c-1 -315 -77 -822 -172 -1153 -528
-1843 -2227 -3287 -4088 -3475 -58 -6 -124 -12 -147 -15 l-43 -5 0 204 0 203
68 7 c37 4 86 10 109 13 l41 5 13 -92 13 -92 46 5 c25 3 69 11 98 17 l54 12
-8 52 c-5 28 -9 71 -9 95 l0 44 90 18 c50 10 93 19 96 19 4 0 19 -45 34 -100
16 -55 32 -100 37 -100 34 0 221 56 225 67 3 8 -5 52 -17 98 -29 108 -30 106
97 150 59 20 114 39 121 42 7 3 29 -30 58 -90 l46 -95 86 35 c48 19 99 40 115
46 34 14 34 20 -8 116 -45 102 -50 90 60 147 87 44 97 47 108 32 7 -9 30 -41
52 -72 22 -31 43 -56 47 -56 7 0 157 86 167 95 2 2 -18 38 -43 81 -26 42 -45
78 -43 80 2 2 53 35 114 73 l110 68 104 -133 c57 -74 106 -134 109 -134 22 0
274 205 267 217 -3 4 -75 96 -161 203 -86 107 -155 197 -154 201 2 3 35 32 73
64 39 32 94 81 123 108 l53 49 26 -23 c14 -13 95 -104 181 -201 85 -98 156
-178 159 -178 4 0 130 117 206 193 l58 57 -20 28 c-11 15 -58 65 -105 112 -93
92 -96 98 -65 126 74 67 353 425 464 597 60 92 39 91 179 7 63 -38 119 -70
125 -70 28 0 201 317 180 331 -8 5 -65 39 -126 75 -62 37 -113 71 -113 76 0 4
22 52 49 106 27 53 70 147 96 207 26 61 49 111 50 113 1 2 46 -16 99 -39 54
-23 99 -39 101 -37 11 11 74 171 70 177 -2 5 -46 25 -97 46 -118 49 -111 39
-87 119 20 67 21 68 39 48 19 -20 166 -79 176 -70 2 3 15 40 28 82 l24 77 -23
9 c-13 5 -58 21 -101 36 -44 14 -80 28 -82 29 -2 2 9 78 25 169 l28 166 37 0
c21 0 83 -5 138 -11 55 -7 102 -10 104 -8 4 3 28 195 40 310 l4 37 -127 11
c-173 17 -157 6 -149 108 3 49 7 107 7 131 l1 42 230 0 230 0 0 -42z m-6985
-263 c53 -71 12 -95 -164 -95 -159 0 -188 14 -165 78 16 45 297 59 329 17z
m894 -422 c17 -21 31 -41 31 -45 0 -5 -468 -8 -1040 -8 l-1039 0 27 45 27 44
982 1 982 0 30 -37z m158 -240 l45 -53 -1205 -2 c-802 -2 -1203 0 -1198 7 53
72 75 94 99 98 15 2 519 4 1121 3 l1093 -1 45 -52z m-442 -256 l31 -42 336 -5
337 -5 29 -41 30 -42 -791 -7 c-436 -4 -1090 -3 -1454 1 l-662 9 27 42 27 43
292 0 292 0 22 40 23 40 705 3 c388 1 711 3 716 4 6 1 24 -17 40 -40z m53
-929 c43 -26 76 -96 68 -142 -32 -171 -271 -166 -283 6 -9 121 114 199 215
136z m1482 -2233 l0 -316 -57 3 -58 3 -3 304 c-3 340 -7 321 71 321 l47 0 0
-315z"/>
<path d="M4823 8863 l-63 -4 0 -297 -1 -297 -118 -122 -119 -123 -176 0 -176
0 0 371 c0 348 -1 370 -17 365 -10 -2 -55 -14 -100 -26 l-83 -22 0 -433 c0
-238 3 -440 6 -449 5 -14 43 -16 316 -16 l310 0 184 182 184 181 0 349 0 348
-42 -2 c-24 -1 -71 -3 -105 -5z"/>
<path d="M4500 8828 c-25 -5 -69 -14 -97 -19 l-53 -10 0 -235 0 -234 105 0
105 0 0 255 c0 140 -3 255 -7 254 -5 -1 -28 -5 -53 -11z"/>
<path d="M5434 8720 c-193 -39 -301 -229 -253 -442 3 -12 -85 -107 -281 -303
l-285 -285 -440 0 -439 0 62 63 62 63 0 422 c0 331 -3 422 -12 422 -7 -1 -53
-17 -102 -38 l-89 -37 2 -352 2 -352 -98 -98 c-54 -54 -149 -146 -210 -205
l-112 -108 357 0 c468 0 563 -19 672 -131 122 -125 133 -174 138 -596 l4 -353
89 0 89 0 0 340 0 340 186 0 187 0 322 321 323 321 148 -1 c140 -2 149 -3 176
-26 115 -97 296 -11 286 136 -11 150 -195 216 -297 105 l-24 -26 -192 0 -191
0 -319 -320 -320 -320 -156 0 -157 0 -25 43 c-14 23 -50 70 -81 104 -31 33
-56 64 -56 67 0 3 64 6 143 6 l143 0 319 314 c176 173 323 317 326 320 4 4 35
-3 70 -14 142 -48 317 32 379 174 102 229 -105 495 -346 446z m125 -180 c94
-47 106 -182 23 -252 -128 -107 -315 59 -221 196 49 71 126 93 198 56z"/>
<path d="M3437 8483 l-97 -47 0 -181 0 -181 -300 -302 c-165 -166 -300 -303
-300 -304 0 -2 68 -2 152 -1 l151 1 250 250 250 250 4 281 c3 165 1 281 -4
281 -5 0 -53 -21 -106 -47z"/>
<path d="M3058 8264 c-253 -171 -472 -359 -762 -652 l-139 -141 176 -3 175 -3
356 350 356 350 0 98 c0 118 11 118 -162 1z"/>
<path d="M6685 8100 c-191 -63 -299 -266 -249 -466 5 -19 -55 -83 -384 -411
-408 -405 -449 -454 -492 -576 -26 -74 -37 -239 -21 -307 10 -42 9 -46 -12
-59 -306 -197 -282 -595 49 -787 18 -10 16 -16 -30 -90 -162 -260 -178 -299
-159 -392 l10 -50 -61 -54 c-71 -63 -142 -123 -321 -272 -160 -133 -165 -138
-165 -188 0 -64 89 -186 174 -239 l28 -17 -29 -16 c-109 -56 -154 -215 -93
-324 26 -47 24 -52 -73 -197 -176 -260 -433 -395 -609 -320 -37 15 -16 -19 50
-84 49 -48 84 -74 127 -91 81 -31 82 -33 47 -77 -64 -79 -83 -142 -93 -291
-12 -203 -48 -293 -150 -371 -60 -45 -59 -50 8 -39 72 11 147 45 196 88 20 17
37 30 37 28 0 -127 -188 -318 -312 -318 -53 0 -28 -18 43 -31 141 -25 279 15
403 116 31 25 56 43 56 41 0 -263 -199 -449 -483 -450 l-99 -1 43 -38 c109
-97 285 -152 462 -144 60 3 105 1 100 -3 -30 -29 -188 -121 -295 -173 -70 -34
-127 -64 -127 -67 -3 -23 344 -76 589 -91 947 -55 1891 264 2720 920 92 73
222 188 228 202 2 4 -26 49 -61 101 -35 51 -75 114 -90 139 l-26 46 52 6 c70
7 144 40 190 85 48 47 47 53 -10 36 -147 -44 -274 83 -245 246 l8 45 32 -47
c46 -67 106 -100 195 -106 l72 -4 -44 45 c-95 99 -87 167 43 362 52 77 110
168 128 202 33 60 48 70 48 32 0 -34 38 -105 83 -154 50 -55 62 -56 47 -4 -36
125 -6 305 101 606 43 123 79 230 79 238 0 7 4 16 9 19 9 6 61 -194 61 -239 0
-41 13 -22 44 65 87 247 78 645 -20 885 -23 57 93 -88 161 -200 l35 -59 0 85
c0 305 -150 684 -362 914 l-27 30 202 0 c241 0 268 6 182 41 -127 52 -398 201
-600 329 -27 17 -63 40 -80 50 l-30 19 114 18 c156 25 155 21 11 67 -238 75
-852 319 -884 351 -7 7 9 30 55 76 l66 66 47 -30 c325 -206 675 225 411 507
-202 216 -587 41 -563 -257 l4 -47 -99 -98 c-75 -74 -103 -97 -115 -91 -287
130 -762 160 -988 63 -57 -24 -57 -23 34 62 42 41 172 168 289 283 l212 209
73 -34 c325 -152 661 221 468 521 -95 148 -266 213 -425 160z m222 -186 c136
-83 119 -287 -29 -349 -195 -81 -378 154 -240 307 76 84 175 100 269 42z m721
-668 c122 -64 123 -231 1 -294 -141 -73 -293 106 -200 237 44 62 138 89 199
57z m-1659 -519 c-125 -122 -182 -333 -134 -497 12 -39 -80 54 -106 108 -55
113 41 296 211 401 87 54 94 51 29 -12z m499 29 c-328 -135 -499 -530 -352
-818 l17 -33 -28 25 c-277 247 -285 605 -18 777 94 60 112 61 61 4 -59 -65
-136 -211 -111 -211 4 0 14 14 22 32 52 116 275 243 436 247 25 0 21 -3 -27
-23z m587 -145 c104 -23 333 -105 270 -96 -22 3 -74 10 -115 16 -97 14 -292 4
-390 -20 l-75 -19 70 -1 c238 -4 548 -90 883 -244 170 -78 182 -89 60 -58 -93
23 -366 76 -443 85 -46 6 -43 4 41 -27 130 -49 585 -289 572 -303 -2 -1 -75
26 -163 60 -569 223 -609 237 -744 260 -203 34 -395 17 -510 -45 -70 -37 -72
-33 -16 29 57 63 156 115 267 139 97 20 83 31 -42 32 -147 2 -282 -48 -375
-136 -82 -79 -16 61 71 150 25 26 42 47 36 47 -26 0 -161 -103 -197 -150 -46
-61 -54 -54 -25 22 89 238 433 346 825 259z m10 -438 c157 -35 736 -298 958
-435 119 -73 119 -82 1 -30 -49 22 -182 71 -294 110 -113 39 -222 78 -244 87
-70 30 -49 7 30 -33 361 -182 594 -379 721 -610 51 -91 55 -112 12 -51 -120
169 -385 347 -694 465 -49 19 -95 40 -102 46 -8 6 -16 8 -19 5 -3 -3 5 -12 18
-20 12 -8 84 -51 158 -97 120 -73 390 -265 390 -277 0 -2 -33 13 -72 35 -40
22 -175 92 -301 156 -125 63 -271 143 -325 177 -288 183 -376 231 -492 271
l-55 19 80 -6 c97 -8 194 -27 266 -55 l54 -20 -40 36 c-100 91 -273 148 -451
149 l-122 0 47 27 c126 75 290 92 476 51z m-1275 -66 l65 -31 -57 -8 c-198
-25 -312 -199 -251 -381 27 -78 -3 -54 -50 42 -125 254 59 492 293 378z m786
-282 c52 -41 119 -109 181 -183 53 -64 128 -152 166 -194 110 -124 259 -244
162 -131 -30 35 -194 304 -234 383 -7 14 32 -23 88 -82 107 -113 210 -202 330
-286 76 -53 122 -72 63 -26 -39 31 -187 209 -231 278 -34 54 -41 80 -13 48 63
-74 270 -212 511 -341 153 -82 313 -188 391 -261 l55 -50 -65 40 c-36 23 -101
59 -145 80 -113 54 -236 110 -242 110 -3 0 21 -20 53 -43 154 -115 304 -302
363 -456 38 -98 39 -110 4 -51 -83 140 -212 265 -408 395 -77 51 -141 92 -143
90 -2 -1 45 -49 104 -106 255 -248 400 -489 440 -729 17 -102 18 -186 2 -110
-47 218 -167 421 -359 605 -97 92 -117 108 -326 260 -68 49 -123 92 -123 96 0
5 -10 13 -21 20 -32 17 -21 2 131 -171 198 -226 253 -300 155 -212 -32 29
-126 106 -209 170 -253 197 -354 312 -506 577 -80 140 -126 202 -208 281 -84
82 -72 81 34 -1z m-311 -120 c48 -9 121 -30 162 -47 l74 -30 -6 -67 c-4 -36
-23 -138 -42 -226 -53 -241 -39 -375 54 -528 44 -72 44 -69 -73 -307 -155
-314 -357 -570 -514 -650 -68 -35 -115 -15 -305 129 -43 33 -128 85 -187 116
-126 66 -122 59 -53 89 118 53 131 226 17 226 -12 0 -13 -3 -4 -12 37 -37 -6
-119 -69 -132 -37 -7 -49 -1 -49 23 0 37 -47 68 -137 90 -172 42 -171 55 27
217 85 69 204 167 263 218 l108 91 -6 80 -6 80 45 -85 c25 -47 66 -107 91
-134 l44 -49 -41 -50 -42 -49 25 -19 c71 -57 143 -69 125 -22 -4 10 17 13 104
13 119 0 137 10 84 45 -21 13 -38 16 -79 10 -34 -4 -55 -2 -60 4 -3 6 1 11 9
11 8 0 25 15 37 33 12 17 24 34 26 36 2 2 19 -12 39 -31 34 -34 154 -106 154
-93 0 4 -16 25 -35 48 -48 55 -44 62 18 31 l52 -26 -90 91 c-49 50 -84 91 -77
91 25 0 214 -42 255 -56 56 -20 55 -16 -11 68 -134 169 -265 223 -515 216 -75
-2 -136 -1 -135 3 5 13 163 280 237 401 81 133 91 140 202 156 99 15 188 13
284 -3z m478 -442 c87 -105 185 -197 347 -329 271 -219 380 -362 446 -579 36
-118 39 -322 7 -420 l-20 -60 5 125 c11 300 -113 515 -448 774 -245 190 -375
354 -452 571 -45 125 -44 137 5 63 24 -37 74 -102 110 -145z m365 -687 c167
-85 235 -263 159 -418 -82 -167 -466 -345 -612 -284 -157 66 -184 306 -46 417
23 18 44 44 47 58 45 209 268 321 452 227z m-1573 -710 c65 -66 111 -148 121
-217 l6 -44 -31 61 c-29 58 -96 123 -185 180 -27 17 -24 10 26 -61 30 -44 59
-86 63 -94 15 -27 -157 114 -210 171 -46 49 -95 141 -95 177 0 26 248 -115
305 -173z m718 -99 c156 -254 117 -584 -96 -811 l-58 -61 25 50 c77 158 96
224 42 147 -47 -68 -371 -369 -346 -321 7 13 57 87 110 164 205 294 266 490
228 725 -7 42 -7 43 6 20 32 -58 58 -200 54 -295 -3 -105 6 -101 27 11 35 179
4 347 -86 476 -11 14 -19 30 -19 35 1 14 73 -76 113 -140z m-386 -87 c95 -146
115 -348 48 -482 -36 -71 -13 -58 41 23 48 72 93 170 94 201 0 9 5 20 12 24
18 11 1 -147 -23 -211 -27 -73 -82 -152 -175 -255 -268 -296 -323 -527 -166
-704 30 -34 -18 -3 -75 48 -110 99 -137 299 -60 451 30 59 -3 28 -46 -44 -80
-134 -105 -288 -64 -385 13 -28 13 -35 3 -27 -119 99 -88 360 66 553 176 221
212 271 247 343 89 182 101 356 36 519 l-24 61 25 -30 c14 -16 41 -55 61 -85z
m629 -88 c107 -421 -101 -795 -532 -958 -70 -26 -97 -26 -46 0 355 184 632
740 528 1061 -21 67 -19 78 5 31 12 -21 32 -81 45 -134z m-1396 20 c-22 -118
-90 -270 -159 -356 -17 -22 -29 -42 -25 -45 10 -10 192 186 219 236 24 46 25
46 19 14 -24 -131 -115 -285 -259 -439 -55 -59 -117 -127 -138 -152 l-38 -45
32 65 c41 84 81 142 143 208 65 69 56 72 -34 10 -143 -99 -261 -235 -316 -364
l-25 -59 4 100 c8 194 64 296 281 510 142 140 234 251 276 333 27 55 33 50 20
-16z m-133 -38 c-50 -123 -123 -208 -228 -264 -94 -50 -87 -34 42 105 67 72
140 151 162 178 50 59 55 55 24 -19z m443 -161 c18 -163 -23 -325 -124 -488
l-37 -60 76 79 c127 132 211 271 254 423 l20 68 0 -60 c2 -195 -97 -385 -296
-568 -48 -44 -136 -129 -195 -189 -60 -60 -108 -106 -108 -103 0 17 75 150
113 200 54 72 53 81 -5 30 -210 -188 -305 -443 -254 -685 18 -82 13 -87 -18
-19 -110 248 -60 476 183 839 100 149 134 214 78 149 -19 -23 -126 -113 -204
-173 l-25 -19 15 29 c22 40 71 109 139 191 116 143 177 254 224 407 l24 81 -4
-140 c-4 -143 -21 -218 -70 -314 -22 -42 -14 -51 11 -14 89 126 162 318 164
427 l1 51 14 -34 c9 -19 19 -67 24 -108z m1820 55 c-138 -208 -120 -522 40
-672 60 -56 61 -59 12 -42 -297 105 -349 435 -107 684 67 68 89 80 55 30z
m-499 -498 c19 -58 46 -106 93 -164 l44 -54 -56 -22 c-82 -32 -246 -90 -254
-90 -4 0 6 26 21 58 35 69 73 188 95 297 29 137 28 136 38 70 4 -32 13 -75 19
-95z m-491 -415 c0 -41 -3 -46 -42 -69 -56 -32 -319 -148 -325 -143 -2 3 73
58 167 123 94 65 173 121 176 126 13 21 24 4 24 -37z m1040 -166 c-36 -17
-287 -130 -559 -251 -766 -341 -979 -449 -1298 -661 -170 -113 -175 -111 -40
19 478 462 1100 774 1787 898 176 32 188 31 110 -5z"/>
<path d="M6865 4496 c-87 -41 -165 -190 -115 -221 19 -12 10 -23 -22 -30 -114
-25 -164 -146 -79 -190 118 -61 374 176 275 254 -53 42 1 108 66 81 141 -59
87 -234 -115 -369 l-50 -33 40 7 c131 22 283 124 324 215 87 191 -127 379
-324 286z"/>
<path d="M5563 7280 c-40 -24 -53 -48 -53 -97 1 -90 109 -137 179 -77 100 84
-14 243 -126 174z"/>
<path d="M4787 6943 c-4 -3 -7 -129 -7 -280 l0 -273 273 0 272 0 46 40 c45 38
47 42 58 117 6 43 25 125 42 183 17 58 34 114 36 125 3 11 -61 -46 -143 -127
l-149 -146 -112 1 -113 2 0 182 0 183 -98 0 c-54 0 -102 -3 -105 -7z"/>
<path d="M4410 5785 l0 -165 125 0 125 0 0 165 0 165 -125 0 -125 0 0 -165z"/>
<path d="M4410 5310 l0 -190 53 -2 c28 -1 85 -2 124 -3 l73 0 0 193 0 192
-125 0 -125 0 0 -190z"/>
<path d="M4612 4137 c-187 -188 -178 -167 -104 -240 l58 -58 105 108 c58 59
133 138 167 174 l61 65 -57 57 c-71 70 -40 84 -230 -106z"/>
<path d="M3771 6924 c-70 -59 -22 -174 73 -174 35 0 84 45 92 84 17 95 -90
153 -165 90z"/>
<path d="M3732 5136 c-88 -100 43 -227 134 -129 53 57 18 149 -62 160 -37 5
-43 2 -72 -31z"/>
<path d="M2625 6759 c-681 -112 -976 -920 -510 -1394 413 -421 1128 -345 1419
151 93 158 119 373 54 441 -20 20 -30 44 -34 78 -11 83 -55 127 -92 91 -9 -9
-43 -30 -75 -46 l-59 -30 -66 28 c-64 27 -68 31 -97 89 -16 34 -41 73 -53 86
l-24 25 20 46 c11 25 18 53 15 64 -11 43 77 112 142 112 105 0 117 46 27 100
-82 48 -102 51 -99 13 2 -27 0 -28 -42 -28 -53 0 -64 -17 -19 -30 43 -13 49
-35 9 -35 -29 0 -30 -2 -28 -37 2 -44 -62 -62 -96 -28 -18 17 -12 45 9 45 37
0 -11 60 -63 78 -24 8 -28 14 -25 41 2 28 -2 34 -35 47 -78 32 -94 64 -32 64
28 0 39 4 37 13 -8 23 -180 33 -283 16z m245 -94 c33 -17 38 -30 14 -39 -44
-17 -98 10 -75 38 17 20 24 20 61 1z m-269 -54 l23 -18 -30 -14 c-16 -8 -37
-30 -46 -49 -33 -67 -71 -78 -135 -39 -19 12 -58 23 -92 26 -74 7 -72 24 7 52
31 10 82 29 112 40 70 26 131 27 161 2z m300 -40 c-12 -21 -48 -34 -57 -20 -9
16 16 39 43 39 20 0 22 -3 14 -19z m-678 -67 c13 -13 -14 -44 -38 -44 -31 0
-32 13 -2 33 25 18 31 20 40 11z m-70 -74 c6 -24 31 -25 71 -5 51 27 98 7 77
-33 -16 -31 22 -31 43 -1 13 19 21 21 58 15 72 -12 111 -47 67 -61 -24 -8 -89
-63 -89 -76 0 -18 25 -8 46 18 15 19 26 24 39 19 15 -5 9 -15 -38 -59 -36 -34
-57 -61 -57 -75 0 -12 -9 -39 -20 -59 -11 -21 -20 -55 -20 -75 0 -36 -1 -37
-24 -27 -34 16 -113 -20 -121 -54 -11 -43 30 -90 50 -57 13 21 45 11 45 -15 0
-18 7 -28 25 -35 16 -6 25 -17 25 -31 0 -16 -4 -19 -17 -14 -10 4 -47 11 -83
17 -86 13 -111 26 -135 71 -31 58 -47 39 -20 -25 13 -32 -15 -20 -33 14 -9 17
-36 53 -59 78 -41 45 -43 50 -43 108 0 119 113 353 152 314 17 -17 55 -15 62
3 4 11 -2 15 -24 15 -33 0 -35 3 -20 31 14 25 36 24 43 -1z m513 -560 c39 -6
78 -19 89 -29 17 -16 33 -18 112 -13 137 7 159 -14 124 -116 -15 -42 -16 -63
-9 -95 14 -63 3 -102 -39 -134 -41 -31 -63 -76 -63 -127 0 -27 -10 -47 -49
-91 -47 -54 -66 -99 -55 -130 16 -40 -101 6 -131 52 -9 13 -20 58 -25 101 -24
189 -28 197 -115 237 -93 42 -141 99 -130 155 4 19 7 67 6 106 -2 83 10 100
63 91 23 -4 42 0 61 13 24 16 31 16 60 4 18 -7 63 -18 101 -24z"/>
<path d="M2242 6403 c-59 -22 -115 -110 -62 -100 29 6 60 -12 60 -35 0 -6 9
-3 20 7 26 23 25 51 -1 65 -20 11 -20 12 -3 31 18 20 10 40 -14 32z"/>
</g>
</svg>
