<?xml version="1.0" encoding="utf-8"?>
<!-- Generator: Adobe Illustrator 25.0.1, SVG Export Plug-In . SVG Version: 6.00 Build 0)  -->
<svg version="1.1" id="Layer_1" xmlns="http://www.w3.org/2000/svg" xmlns:xlink="http://www.w3.org/1999/xlink" x="0px" y="0px"
	 viewBox="0 0 1024 1024" style="enable-background:new 0 0 1024 1024;" xml:space="preserve">
<style type="text/css">
	.st0{fill:#C82D72;}
	.st1{fill:#F4F4F4;}
	.st2{fill:#F2F2F2;}
</style>
<g transform="translate(0.000000,1024.000000) scale(0.100000,-0.100000)">
	<path class="st0" d="M5063,8790c-84-7-119-31-129-87c-3-18-8-33-10-33c-339,0-861-202-1124-434c-356-314-450-583-450-1287v-386
		l-51-84c-231-377-306-519-349-658c-48-160-51-186-48-516c3-307,3-311-21-370c-83-207-282-319-470-265c-48,13-48,9,1-39
		c177-173,458-176,646-6c65,58,61,62,51-65c-29-362-167-613-399-724c-94-45-275-47-358-3c-66,34-66,34-47-4c143-275,622-354,895-147
		c57,43,57,42-13-55c-115-159-278-252-492-282l-50-7l43-19c117-51,288-60,410-24c153,46-9-45-548-307c-367-179-753-403-938-544
		c-41-31-42-33-20-38c261-56,1066-260,1918-486c931-247,1295-342,1525-399l80-20l180,45c208,53,376,97,1010,264
		c253,67,595,157,760,200s361,95,435,115c74,21,364,94,643,164l508,128l-108,75c-312,217-525,337-1068,598c-203,98-410,209-402,216
		c2,2,28-4,58-13c110-35,377-9,446,43c16,12,10,13-49,14c-173,1-385,126-508,301c-44,63-42,66,17,22c265-199,737-111,897,167l19,34
		l-34-21c-95-59-273-69-389-23c-245,95-418,432-420,815v40l30-37c158-191,472-197,684-12c46,40,44,47-9,33c-286-79-520,168-501,531
		c22,433,21,445-39,627c-45,134-80,203-250,488l-143,240l-5,435c-4,386-7,446-25,530c-133,626-696,1059-1489,1145c-58,6-63,9-63,31
		c0,50-84,108-150,102C5142,8798,5102,8794,5063,8790z M5289,8174l-32-59l32-33c42-41,38-42,108,31l61,63l16-57
		c30-110-29-199-132-199c-29,0-200-180-203-213c-1-7,0-27,1-45c10-191-264-244-325-62c-40,121,31,220,165,230l64,5l72,84l72,83
		l-24,35c-55,81-27,153,69,186C5323,8253,5329,8248,5289,8174z M5333,6965c282-33,538-136,762-305c72-55,272-229,294-257
		c8-10,37-42,65-72l51-54l-55,41c-854,629-1841,632-2652,6c-91-69-69-38,74,106C4298,6860,4767,7031,5333,6965z M5360,6534
		c274-40,467-111,770-282l136-77l21-96c11-52,37-131,57-174l36-78v-206c0-279,19-211-273-949l-84-213l-7,67c-15,147-74,256-177,327
		c-86,59-131,67-399,67l-235,1l47,18c98,39,198,130,198,182c0,37-6,37-121-5c-192-69-257-69-427,0c-107,42-122,43-122,6
		c0-52,109-159,193-188c26-9-16-12-218-15l-251-4l-65-32c-134-66-226-226-229-398c-1-30-137,298-260,626c-101,270-99,261-100,496
		l-1,208l35,85c19,47,40,114,47,150c24,130,17,120,115,178C4478,6489,4935,6596,5360,6534z M3610,5373l-1-348l-64,67
		c-101,106-158,243-172,410l-6,76l69,35c38,20,92,51,119,71c28,19,51,35,53,35C3609,5720,3610,5564,3610,5373z M6650,5705
		c19-23,151-103,184-111l28-7l-7-76c-18-194-112-401-210-465l-25-16v345C6620,5708,6623,5738,6650,5705z M5714,4559
		c89-70,80-285-15-392c-175-196-426-202-469-11c-8,33-6,35,28,50c44,18,83,54,123,112l30,42h-295h-295l20-34c25-43,101-113,135-127
		c23-8,26-14,21-44c-33-203-305-182-488,37l-49,59v125c0,220-53,204,656,204C5680,4580,5688,4580,5714,4559z M4180,3844
		c527-619,1514-550,1983,138c18,26,34,48,37,48s3-219,2-487l-4-488l-62-55c-106-94-601-546-814-743l-203-188l-43,38
		c-344,306-1039,942-1046,957c-3,6-4,226-2,489l2,478l39-51C4091,3951,4140,3890,4180,3844z"/>
	<path d="M4927,7702c-37-40-9-102,46-102c29,0,57,32,57,66C5030,7713,4959,7738,4927,7702z"/>
	<path class="st0" d="M4338,6244c-104-25-182-81-208-148c-13-36-10-40,26-24c56,23,320,15,478-15c175-34,196-34,235-1
		c54,45,38,124-32,160C4762,6255,4454,6273,4338,6244z"/>
	<path class="st0" d="M5535,6249c-161-21-205-48-205-127c0-95,40-106,250-67c210,40,427,44,513,10c56-23-28,96-96,135
		C5899,6256,5731,6273,5535,6249z"/>
</g>
<path class="st0" d="M632,413.8c-12.8-6.8-16.2-6.9-126.6-6.6c-105.5,0.3-106.8,0.3-117.4,7.6c-0.3,0.4-0.6,0.7-0.8,1.1
	c-0.8,1.7-1.7,3.5-2.5,5.2c-2.3,11,0.2,23.4,2.9,33.9c0.1,0.6,0.2,1.1,0.1,1.5c5.9,22.1,18,35.6,35.2,39.1
	c31.7,6.4,59.2-14.4,74.6-56.6c3-8.4,2.1-7.8,14.2-7.6l10.2,0.1l2.7,7.5c13.2,37.2,34.9,57.3,62.2,57.3c25.4,0,41.9-14.8,48.6-44"/>
<path class="st1" d="M442.2,444.7c-23.5,22.4-21.8,21.2-27.1,20.5c-2.4-0.2-4.4-0.6-4.7-0.9c-0.6-0.5,17.3-18.9,29.4-29.9l8.2-7.5
	l6.2-0.2c3.3-0.1,6.2-0.1,6.3,0.1C460.5,427,452.3,435.1,442.2,444.7z"/>
<path class="st2" d="M601,428.7c0,1.6-36.6,34.6-38.3,34.5c-12.3-0.3-13.2,1.7,8.5-18.4"/>
</svg>
